<svg id="_Group_3" xmlns="http://www.w3.org/2000/svg" width="11.554" height="14.202" viewBox="0 0 11.554 14.202">
  <path id="_Path_" d="M11.887,9.916a3.226,3.226,0,0,1,1.537-2.708,3.3,3.3,0,0,0-2.6-1.407c-1.1-.115-2.157.655-2.715.655s-1.428-.644-2.353-.625A3.467,3.467,0,0,0,2.836,7.61C1.575,9.794,2.515,13,3.723,14.768c.6.865,1.311,1.83,2.236,1.8.9-.037,1.243-.577,2.334-.577s1.4.577,2.342.555c.97-.016,1.582-.868,2.166-1.741a7.139,7.139,0,0,0,.99-2.017A3.118,3.118,0,0,1,11.887,9.916Z" transform="translate(-2.237 -2.364)"/>
  <path id="_Path_2" d="M14.074,2.276A3.178,3.178,0,0,0,14.8,0a3.235,3.235,0,0,0-2.092,1.082,3.024,3.024,0,0,0-.746,2.192A2.675,2.675,0,0,0,14.074,2.276Z" transform="translate(-6.205)"/>
</svg>
