<svg xmlns="http://www.w3.org/2000/svg" width="12.549" height="12.879" viewBox="0 0 12.549 12.879">
  <g id="google" transform="translate(-0.308)">
    <path id="Path_303" data-name="Path 303" d="M6.839,7.655V5.9h5.929a5.826,5.826,0,0,1,.088,1.062,5.809,5.809,0,0,1-1.524,4.116,5.888,5.888,0,0,1-4.491,1.806A6.53,6.53,0,0,1,.308,6.44,6.53,6.53,0,0,1,6.842,0a6.136,6.136,0,0,1,4.413,1.775L10.013,3.016A4.485,4.485,0,0,0,6.839,1.76,4.619,4.619,0,0,0,2.221,6.44a4.619,4.619,0,0,0,4.618,4.68,4.308,4.308,0,0,0,3.252-1.288,3.646,3.646,0,0,0,.954-2.178Z"/>
  </g>
</svg>
