<svg id="home_1_" data-name="home (1)" xmlns="http://www.w3.org/2000/svg" width="21.337" height="20.083" viewBox="0 0 21.337 20.083">
  <path id="Path_122" data-name="Path 122" d="M194.667,319.841A2.593,2.593,0,0,0,192,322.353v5.024h5.334v-5.024A2.593,2.593,0,0,0,194.667,319.841Z" transform="translate(-183.999 -307.294)" fill="#fff"/>
  <g id="Group_2403" data-name="Group 2403">
    <path id="Path_123" data-name="Path 123" d="M15.114,15.219v5.024H18.67a2.593,2.593,0,0,0,2.667-2.512V10.094a1.625,1.625,0,0,0-.5-1.166L13.281,1.236a3.713,3.713,0,0,0-5.025-.186q-.1.089-.2.186L.517,8.926A1.626,1.626,0,0,0,0,10.106v7.625a2.593,2.593,0,0,0,2.667,2.512H6.223V15.219a4.364,4.364,0,0,1,4.337-4.2A4.382,4.382,0,0,1,15.114,15.219Z" transform="translate(0 -0.16)" fill="#fff"/>
    <path id="Path_124" data-name="Path 124" d="M194.667,319.841A2.593,2.593,0,0,0,192,322.353v5.024h5.334v-5.024A2.593,2.593,0,0,0,194.667,319.841Z" transform="translate(-183.999 -307.294)" fill="#fff"/>
  </g>
</svg>
