<svg xmlns="http://www.w3.org/2000/svg" width="17.857" height="17.857" viewBox="0 0 17.857 17.857">
  <path id="trophy_copy" data-name="trophy copy" d="M10.484,11.9h.677c4.943,0,6.7-2.6,6.7-4.836a2.6,2.6,0,0,0-2.113-2.554,5.628,5.628,0,0,0,.3-.744A2.892,2.892,0,0,0,15.583,1.2,2.961,2.961,0,0,0,13.191,0H4.666A2.961,2.961,0,0,0,2.275,1.2a2.892,2.892,0,0,0-.466,2.573,5.628,5.628,0,0,0,.3.744A2.6,2.6,0,0,0,0,7.069C0,9.3,1.754,11.9,6.7,11.9h.677a3.74,3.74,0,0,1,.067.685v2.291a1.4,1.4,0,0,1-1.488,1.488H4.464a.744.744,0,1,0,0,1.488h8.929a.744.744,0,1,0,0-1.488H11.909a1.4,1.4,0,0,1-1.493-1.488V12.589a3.739,3.739,0,0,1,.067-.685ZM11.7,9.784A17.475,17.475,0,0,0,14.975,5.9a.744.744,0,0,0,.278.057,1.116,1.116,0,0,1,1.116,1.116c0,1.619-1.368,3.348-5.208,3.348h-.042A3.575,3.575,0,0,1,11.7,9.784Zm-5,.633c-3.84,0-5.208-1.729-5.208-3.348A1.116,1.116,0,0,1,2.6,5.952.744.744,0,0,0,2.883,5.9,17.475,17.475,0,0,0,6.157,9.784a3.575,3.575,0,0,1,.581.633Z" fill="#fff"/>
</svg>
