<svg width="538" height="94" viewBox="0 0 538 94" fill="none" xmlns="http://www.w3.org/2000/svg">
<path d="M3.6875 13.125C1.39583 13.125 0.25 12.1875 0.25 10.3125V5.1875C0.25 3.3125 1.39583 2.375 3.6875 2.375H69.8125C72.1042 2.375 73.25 3.3125 73.25 5.1875V10.3125C73.25 12.1875 72.1042 13.125 69.8125 13.125H42.75V88.5625C42.75 90.8542 41.7083 92 39.625 92H33.875C31.7917 92 30.75 90.8542 30.75 88.5625V13.125H3.6875ZM81.25 47.1875C81.25 32.6042 84.8333 21.1875 92 12.9375C99.2083 4.64583 109.583 0.5 123.125 0.5C136.667 0.5 147.021 4.64583 154.188 12.9375C161.396 21.1875 165 32.6042 165 47.1875C165 61.7708 161.396 73.2083 154.188 81.5C147.021 89.75 136.667 93.875 123.125 93.875C109.583 93.875 99.2083 89.75 92 81.5C84.8333 73.2083 81.25 61.7708 81.25 47.1875ZM94.0625 47.1875C94.0625 58.8542 96.4583 67.9375 101.25 74.4375C106.042 80.8958 113.333 84.125 123.125 84.125C132.917 84.125 140.208 80.8958 145 74.4375C149.792 67.9375 152.188 58.8542 152.188 47.1875C152.188 35.5208 149.792 26.4583 145 20C140.208 13.5 132.917 10.25 123.125 10.25C113.333 10.25 106.042 13.5 101.25 20C96.4583 26.4583 94.0625 35.5208 94.0625 47.1875ZM184.5 92C182.417 92 181.375 90.8542 181.375 88.5625V5.8125C181.375 3.52083 182.417 2.375 184.5 2.375H210.75C224.917 2.375 234.479 4.77083 239.438 9.5625C244.396 14.3125 246.875 20.8542 246.875 29.1875C246.875 37.5208 244.396 44.0833 239.438 48.875C234.479 53.625 224.917 56 210.75 56H193.375V88.5625C193.375 90.8542 192.333 92 190.25 92H184.5ZM193.375 45.75H210.938C220.104 45.75 226.354 44.4583 229.688 41.875C233.021 39.25 234.688 35.0208 234.688 29.1875C234.688 23.3542 233.021 19.1458 229.688 16.5625C226.354 13.9375 220.104 12.625 210.938 12.625H193.375V45.75ZM266.25 92C264.167 92 263.125 90.8542 263.125 88.5625V5.8125C263.125 3.52083 264.167 2.375 266.25 2.375H292.5C306.667 2.375 316.229 4.77083 321.188 9.5625C326.146 14.3125 328.625 20.8542 328.625 29.1875C328.625 37.5208 326.146 44.0833 321.188 48.875C316.229 53.625 306.667 56 292.5 56H275.125V88.5625C275.125 90.8542 274.083 92 272 92H266.25ZM275.125 45.75H292.688C301.854 45.75 308.104 44.4583 311.438 41.875C314.771 39.25 316.438 35.0208 316.438 29.1875C316.438 23.3542 314.771 19.1458 311.438 16.5625C308.104 13.9375 301.854 12.625 292.688 12.625H275.125V45.75ZM348 92C345.917 92 344.875 90.8542 344.875 88.5625V5.8125C344.875 3.52083 345.917 2.375 348 2.375H353.75C355.833 2.375 356.875 3.52083 356.875 5.8125V88.5625C356.875 90.8542 355.833 92 353.75 92H348ZM373.25 47.1875C373.25 32.6042 376.854 21.1875 384.062 12.9375C391.312 4.64583 401.708 0.5 415.25 0.5C423.167 0.5 429.708 1.85417 434.875 4.5625C440.042 7.22917 443.75 10.8958 446 15.5625C447.167 17.9792 446.979 19.6458 445.438 20.5625L440.5 23.4375C438.833 24.3958 437.354 23.6042 436.062 21.0625C434.688 18.4375 432.438 15.9792 429.312 13.6875C426.188 11.3958 421.708 10.25 415.875 10.25C405.458 10.25 397.875 13.5 393.125 20C388.417 26.4583 386.062 35.5208 386.062 47.1875C386.062 58.8542 388.417 67.9375 393.125 74.4375C397.875 80.8958 405.458 84.125 415.875 84.125C421.875 84.125 426.667 82.75 430.25 80C433.875 77.25 436.5 74.375 438.125 71.375C439.417 68.9583 440.917 68.2292 442.625 69.1875L447.812 72.125C449.312 73 449.438 74.6667 448.188 77.125C445.729 81.9167 441.729 85.9167 436.188 89.125C430.646 92.2917 423.667 93.875 415.25 93.875C401.708 93.875 391.312 89.75 384.062 81.5C376.854 73.2083 373.25 61.7708 373.25 47.1875ZM468.875 92C466.792 92 465.75 90.8542 465.75 88.5625V5.8125C465.75 3.52083 466.792 2.375 468.875 2.375H474.625C476.708 2.375 477.75 3.52083 477.75 5.8125V42.5625C477.75 44.2292 477.708 45.8958 477.625 47.5625H477.875L519.625 4.8125C521.208 3.1875 522.667 2.375 524 2.375H531.562C535.021 2.375 535.396 3.75 532.688 6.5L500.938 38.875L534.375 87.875C536.208 90.625 535.833 92 533.25 92H525.625C523.792 92 522.333 91.1875 521.25 89.5625L492.688 47.375L477.75 62.5625V88.5625C477.75 90.8542 476.708 92 474.625 92H468.875Z" fill="#3253FF"/>
</svg>
