<svg xmlns="http://www.w3.org/2000/svg" width="22" height="16" viewBox="0 0 22 16">
  <g id="XMLID_184_" transform="translate(0 -3.546)" style="isolation: isolate">
    <path id="Path_319" data-name="Path 319" d="M21.54,6.044a2.812,2.812,0,0,0-1.945-2.021C17.88,3.546,11,3.546,11,3.546s-6.88,0-8.6.477A2.811,2.811,0,0,0,.46,6.044a30.852,30.852,0,0,0-.46,5.5,30.852,30.852,0,0,0,.46,5.5,2.812,2.812,0,0,0,1.945,2.021c1.715.477,8.595.477,8.595.477s6.88,0,8.6-.477a2.814,2.814,0,0,0,1.945-2.021,30.912,30.912,0,0,0,.459-5.5A30.852,30.852,0,0,0,21.54,6.044ZM8.751,14.923V8.169L14.5,11.546Z" transform="translate(0 0)" fill="#fff"/>
  </g>
</svg>
